# xmcd
#
# Track frame offsets: 
#        150
#        11688
#        27084
#        41114
#        50450
#        69844
#        92193
#        104860
#        117470
#        134120
#        161736
#        184001
#        204595
#        220493
#        242452
#        270820
#        288236
#
# Disc length: 4114 seconds
#
# Revision: 0
# Processed by: cddbd v1.5.2PL0 Copyright (c) Steve Scherf et al.
# Submitted via: ExactAudioCopy v0.95b4
#
DISCID=fc101011
DTITLE=Deak Harp - Gateway to the Blues
DYEAR=1900
DGENRE=Blues
TTITLE0=Riding the Rails
TTITLE1=John Henry
TTITLE2=Davidson County Blues
TTITLE3=Little Embarras
TTITLE4=Cattle Car Blues
TTITLE5=Lazy River
TTITLE6=Old Soul
TTITLE7=Old Dodie
TTITLE8=Gateway to the Blues
TTITLE9=Yea My Baby
TTITLE10=Brocton Straight
TTITLE11=Up All Night Blues
TTITLE12=Moving Soon
TTITLE13=Cone-A-Phone-A-Boogie
TTITLE14=Midnight Blues
TTITLE15=Big Fat Mama
TTITLE16=Mad Dog 20/20
EXTD=
EXTT0=
EXTT1=
EXTT2=
EXTT3=
EXTT4=
EXTT5=
EXTT6=
EXTT7=
EXTT8=
EXTT9=
EXTT10=
EXTT11=
EXTT12=
EXTT13=
EXTT14=
EXTT15=
EXTT16=
PLAYORDER=
